<?xml version="1.0" encoding="UTF-8"?>
<svg version="1.1" viewBox="0 0 121 32" xmlns="http://www.w3.org/2000/svg">
<title>Logo</title>
<desc>Created with Sketch.</desc>
<g fill="none" fill-rule="evenodd">
<g transform="translate(-24 -19)">
<g transform="translate(24 19)">
<polygon points="0 0 0 25.485 12.798 25.485 19.198 31.855 19.198 25.485 25.597 25.485 25.597 0" fill="#96285F"/>
<path d="m18.822 13.391c-0.24862 0.021333-0.48274 0.0034509-0.7657-0.068392l0.40333 4.5955c-1.5478-0.42729-3.1498-0.57255-4.7763-0.43137-1.6303 0.14118-3.1851 0.56063-4.6361 1.2493l-0.39987-4.565c-0.27603 0.096941-0.48589 0.14337-0.74365 0.16565-1.5913 0.13804-2.9992-1.0391-3.1375-2.624-0.13865-1.5849 1.043-2.9867 2.6358-3.1247h6.3021e-4c0.24862-0.021333 0.49629-0.011922 0.73545 0.028863 0.39388 0.067451 0.77705 0.085647 1.1372 0.054588 1.2796-0.11075 2.3989-0.73192 3.1482-1.7443 0.49377-0.656 1.2466-1.0726 2.0665-1.1438 1.5922-0.13741 2.9995 1.0397 3.1388 2.6246 0.10524 1.2016-0.57065 2.342-1.6414 2.8524l1.1073 1.1034c1.1211-0.71153 1.8777-1.9053 2.0277-3.2267 0.88954 0.20518 1.5878 0.9622 1.6716 1.9162 0.10272 1.1859-0.78114 2.2347-1.9719 2.3379m3.4772-2.4681c-0.15535-1.7741-1.5645-3.1457-3.2796-3.3252-0.51299-2.0584-2.4726-3.5018-4.6607-3.3123-1.2459 0.10792-2.392 0.74165-3.1473 1.7443-0.49188 0.66447-1.2267 1.0707-2.0674 1.1435-0.23129 0.020078-0.48432 0.0072157-0.75152-0.038588-0.36741-0.062431-0.74396-0.07749-1.1211-0.044549h-3.1511e-4c-2.4216 0.20957-4.2202 2.3416-4.0094 4.7526 0.1878 2.1556 1.9196 3.8155 4.016 3.9928l0.46667 5.3471 1.0307-0.60235c1.5446-0.90322 3.2399-1.4394 5.0395-1.5953 1.7961-0.15561 3.5566 0.080314 5.2326 0.7018l1.1189 0.41569-0.46793-5.3562c1.6303-0.49035 2.7531-2.0681 2.6009-3.8234" fill="#FEFEFE"/>
<path d="m120.56 13.76c-0.098628-0.26918-0.2524-0.50855-0.46257-0.71812-0.2108-0.21082-0.47801-0.39749-0.80194-0.56502-0.3255-0.1669-0.71718-0.336-1.1838-0.50855-0.27981-0.095686-0.51646-0.1898-0.71214-0.28173-0.1941-0.091294-0.34977-0.18196-0.47077-0.2742-0.11722-0.091922-0.20135-0.19012-0.24988-0.29929-0.048841-0.10698-0.073734-0.23027-0.073734-0.37051 0-0.27953 0.1251-0.48627 0.3734-0.62086 0.24799-0.13427 0.57286-0.20173 0.97178-0.20173 0.44335 0 0.83061 0.039529 1.1668 0.12141 0.3359 0.080314 0.61162 0.16973 0.824 0.26635l0.36079-1.5812c-0.22782-0.086275-0.56908-0.17537-1.0228-0.26604-0.45375-0.091922-0.92893-0.13804-1.4255-0.13804-0.9847 0-1.7595 0.22431-2.3324 0.67043-0.57412 0.44518-0.85866 1.056-0.85866 1.8303 0 0.39906 0.061445 0.73506 0.18465 1.0086 0.1251 0.27325 0.29431 0.50824 0.50952 0.70118 0.21742 0.19388 0.47266 0.36298 0.77138 0.50886 0.29651 0.14431 0.62422 0.28204 0.97997 0.41098 0.58294 0.21522 1.003 0.41443 1.2557 0.59733 0.25429 0.18259 0.38159 0.41349 0.38159 0.69239 0 0.30149-0.11974 0.51482-0.35827 0.6378-0.23664 0.12392-0.61477 0.18541-1.1347 0.18541-0.51551 0-0.9784-0.053961-1.3836-0.16126-0.3923-0.10353-0.7323-0.21333-1.0178-0.32753l-0.36489 1.6191c0.18402 0.075922 0.5007 0.1738 0.95319 0.29678 0.4547 0.12298 1.0518 0.18541 1.797 0.18541 1.1139 0 1.9688-0.20549 2.5684-0.61992 0.60122-0.41412 0.89836-1.0246 0.89836-1.8312 0-0.3771-0.046005-0.69929-0.14306-0.96722zm-6.7946-5.0877 0.005357-0.02698c-0.097052-0.032627-0.22845-0.06651-0.38947-0.10416-0.16322-0.037647-0.32865-0.069647-0.50354-0.097255-0.17299-0.026667-0.34409-0.047686-0.51709-0.064314-0.17299-0.015686-0.32298-0.023843-0.45406-0.023843-0.69165 0-1.3193 0.06149-1.8868 0.18541-0.5675 0.12329-1.0402 0.25412-1.4167 0.39592v8.0326h1.959v-6.7586c0.097052-0.033255 0.26752-0.070902 0.5111-0.11357 0.24326-0.042353 0.47234-0.064628 0.68976-0.064628 0.3775 0 0.70836 0.02949 0.99415 0.088784 0.27162 0.057098 0.48589 0.10886 0.64502 0.16063l0.36332-1.61zm-12.373 3.2474c0.034031-0.24659 0.092956-0.48878 0.17835-0.72533 0.087284-0.23686 0.20923-0.44643 0.36521-0.62871 0.15724-0.18259 0.34756-0.33129 0.57412-0.44392 0.2294-0.11357 0.49345-0.16878 0.79501-0.16878 0.29053 0 0.54261 0.05051 0.75247 0.15341 0.21112 0.10165 0.38915 0.24188 0.53316 0.41914 0.14904 0.17663 0.25965 0.38714 0.33401 0.62902 0.07531 0.24125 0.11407 0.49694 0.11407 0.76518h-3.6464zm4.6257-2.5155c-0.65258-0.72125-1.562-1.0817-2.7291-1.0817-0.49723 0-0.98344 0.094745-1.4583 0.28267-0.47644 0.18824-0.89742 0.46745-1.2642 0.83953-0.36804 0.3702-0.66298 0.83545-0.88355 1.3955-0.21931 0.55843-0.33117 1.2088-0.33117 1.9511 0 0.63561 0.086654 1.2182 0.25902 1.7493 0.17331 0.53365 0.43673 0.99576 0.79249 1.3892 0.35701 0.39216 0.81297 0.69898 1.3616 0.91859 0.55175 0.21992 1.1996 0.33004 1.9467 0.33004 0.29021 0 0.57444-0.014745 0.85645-0.047373 0.28233-0.032 0.5445-0.072471 0.78618-0.12078 0.24389-0.048941 0.45879-0.10322 0.64848-0.16188 0.18686-0.058039 0.33149-0.1142 0.44178-0.16784l-0.3526-1.5595c-0.2149 0.082196-0.49377 0.16094-0.83503 0.23435-0.39546 0.08753-0.82904 0.12957-1.3042 0.12957-0.81171 0-1.4274-0.1851-1.8547-0.55624-0.42728-0.3702-0.66644-0.89443-0.72285-1.5724h5.5915c0.010083-0.10761 0.017646-0.22902 0.023318-0.36298 0.005356-0.13427 0.008507-0.25569 0.008507-0.36298 0-1.43-0.32519-2.506-0.98029-3.226zm-18.333 6.0976c-0.31164 0.064-0.77232 0.096627-1.3764 0.096627-0.49503 0-0.88922-0.088471-1.182-0.26698-0.29305-0.17757-0.43705-0.49631-0.43705-0.95843 0-0.23749 0.053568-0.43357 0.15944-0.59012 0.11029-0.15529 0.2524-0.27671 0.42949-0.36173 0.17866-0.086588 0.3797-0.14557 0.60027-0.17757 0.22089-0.033255 0.43989-0.049882 0.65668-0.049882 0.24925 0 0.47581 0.016628 0.68126 0.049882 0.20387 0.032 0.36111 0.064627 0.46824 0.096v2.1622zm1.728-5.2025c-0.11501-0.41475-0.30345-0.76675-0.56939-1.0566-0.26563-0.2902-0.6154-0.51608-1.06-0.67733-0.44178-0.16157-0.98943-0.24282-1.6367-0.24282-0.54103 0-1.0477 0.043608-1.5245 0.1302-0.47203 0.085333-0.83124 0.17098-1.0805 0.25631l0.34914 1.5448c0.21963-0.070588 0.49093-0.13365 0.81486-0.18824 0.37718-0.065882 0.79312-0.096941 1.2481-0.096941 0.33433 0 0.61256 0.042667 0.83282 0.12894 0.22057 0.086902 0.40081 0.20706 0.53505 0.36329 0.13581 0.15529 0.22814 0.33631 0.28233 0.54024 0.056404 0.20424 0.080667 0.42039 0.080667 0.64533v0.32188c-0.26784-0.064-0.52244-0.11012-0.75909-0.13647-0.24011-0.02698-0.46572-0.040471-0.68189-0.040471-0.46509 0-0.90939 0.044549-1.3376 0.13678-0.42602 0.091294-0.80099 0.24345-1.1243 0.45176-0.3233 0.20957-0.57948 0.48188-0.77074 0.8138-0.19064 0.33475-0.28359 0.74259-0.28359 1.2282 0 0.50478 0.082872 0.92957 0.25208 1.2731 0.16669 0.34478 0.39829 0.62431 0.69543 0.83827 0.29746 0.21616 0.65731 0.37114 1.0783 0.46933 0.42035 0.096314 0.88576 0.144 1.3934 0.144 0.7657 0 1.4555-0.046118 2.0671-0.13647 0.60941-0.091608 1.0654-0.17035 1.3672-0.23435v-5.114c0-0.49349-0.057979-0.94839-0.16827-1.3625zm-23.891 5.2025c-0.3151 0.064-0.77358 0.096627-1.3786 0.096627-0.4966 0-0.89206-0.088471-1.1842-0.26698-0.29021-0.17757-0.43579-0.49631-0.43579-0.95843 0-0.23749 0.053568-0.43357 0.16196-0.59012 0.10903-0.15529 0.25177-0.27671 0.43012-0.36173 0.1774-0.086588 0.3756-0.14557 0.59838-0.17757 0.22183-0.033255 0.44115-0.049882 0.65542-0.049882 0.24925 0 0.47644 0.016628 0.67999 0.049882 0.20608 0.032 0.36205 0.064627 0.47266 0.096v2.1622zm1.7255-5.2025c-0.1147-0.41475-0.30345-0.76675-0.56971-1.0566-0.26343-0.2902-0.61666-0.51608-1.061-0.67733-0.44146-0.16157-0.98659-0.24282-1.6341-0.24282-0.54166 0-1.0502 0.043608-1.5242 0.1302-0.47234 0.085333-0.83219 0.17098-1.0818 0.25631l0.34819 1.5451c0.21994-0.070902 0.49219-0.13396 0.81454-0.18855 0.37749-0.065882 0.79343-0.096941 1.2488-0.096941 0.33307 0 0.6113 0.042667 0.83408 0.12894 0.22089 0.086902 0.39892 0.20706 0.53347 0.36329 0.13486 0.15529 0.23066 0.33631 0.28359 0.54024 0.054513 0.20424 0.082557 0.42039 0.082557 0.64533v0.32188c-0.27193-0.064-0.52559-0.11012-0.76255-0.13647-0.23727-0.02698-0.46509-0.040471-0.68062-0.040471-0.46383 0-0.90939 0.044549-1.3379 0.13678-0.42476 0.091294-0.80068 0.24345-1.1256 0.45176-0.32298 0.20957-0.58042 0.48188-0.77011 0.8138-0.18749 0.33475-0.28265 0.74259-0.28265 1.2282 0 0.50478 0.085078 0.92957 0.2524 1.2731 0.16701 0.34478 0.3964 0.62431 0.69575 0.83827 0.29683 0.21616 0.65542 0.37114 1.078 0.46933 0.42161 0.096314 0.88513 0.144 1.394 0.144 0.7657 0 1.4533-0.046118 2.0649-0.13647 0.60941-0.091608 1.0666-0.17035 1.3688-0.23435v-5.114c0-0.49349-0.057349-0.94839-0.1689-1.3625zm-12.431 4.8791c-0.21994 0.08251-0.47077 0.1531-0.75877 0.2102-0.3233 0.064314-0.65227 0.096314-0.9888 0.096314-0.89616 0-1.532-0.24408-1.9111-0.73255-0.37781-0.49004-0.56656-1.1555-0.56656-1.9944 0-0.87027 0.19978-1.5448 0.5987-2.0235 0.39987-0.47812 0.98281-0.71749 1.751-0.71749 0.3233 0 0.62863 0.032 0.91475 0.096941 0.2858 0.064 0.54229 0.14588 0.77074 0.24157l0.36489-1.6185c-0.69796-0.27514-1.434-0.41443-2.212-0.41443-0.64848 0-1.233 0.11357-1.7513 0.34008-0.5174 0.22463-0.95666 0.53804-1.3197 0.93522-0.36174 0.39812-0.64061 0.86902-0.8344 1.4108-0.19379 0.54306-0.29179 1.1266-0.29179 1.7493 0 0.63624 0.086969 1.2242 0.26028 1.7672 0.17016 0.54306 0.43264 1.0111 0.78366 1.4045 0.35071 0.39216 0.79564 0.69898 1.3297 0.91859 0.53379 0.21992 1.164 0.33004 1.8878 0.33004 0.46383 0 0.91506-0.042039 1.354-0.128 0.43327-0.085647 0.75877-0.18165 0.97588-0.28863l-0.35701-1.5834zm-16.946-1.4184c-0.096422-0.26918-0.25082-0.50855-0.46131-0.71812-0.20954-0.21082-0.47801-0.39749-0.80257-0.56502-0.32298-0.1669-0.71623-0.336-1.1816-0.50855-0.28044-0.095686-0.51803-0.1898-0.71371-0.28173-0.19442-0.091294-0.35103-0.18196-0.46982-0.2742-0.11974-0.091922-0.2023-0.19012-0.25114-0.29929-0.047896-0.10698-0.073734-0.23027-0.073734-0.37051 0-0.27953 0.12604-0.48627 0.37371-0.62086 0.24862-0.13427 0.57286-0.20173 0.97178-0.20173 0.44304 0 0.83345 0.039529 1.1656 0.12141 0.33653 0.080314 0.61099 0.16973 0.82841 0.26635l0.35701-1.5812c-0.22624-0.086275-0.5675-0.17537-1.0216-0.26604-0.45312-0.091922-0.93019-0.13804-1.4262-0.13804-0.9847 0-1.7621 0.22431-2.3321 0.67043-0.57349 0.44518-0.85992 1.056-0.85992 1.8303 0 0.39906 0.062706 0.73506 0.18686 1.0086 0.12384 0.27325 0.29494 0.50824 0.50984 0.70118 0.21553 0.19388 0.47455 0.36298 0.7698 0.50886 0.2962 0.14431 0.62359 0.28204 0.98092 0.41098 0.58389 0.21522 1.0014 0.41443 1.2547 0.59733 0.25303 0.18259 0.38033 0.41349 0.38033 0.69239 0 0.30149-0.11816 0.51482-0.35733 0.6378-0.23633 0.12392-0.61445 0.18541-1.1322 0.18541-0.51835 0-0.97966-0.053961-1.3849-0.16126-0.39293-0.10353-0.73199-0.21302-1.0175-0.32722l-0.36426 1.6191c0.18402 0.076235 0.50228 0.17412 0.94972 0.29647 0.45564 0.12298 1.055 0.18541 1.7999 0.18541 1.112 0 1.9675-0.20549 2.5672-0.61992 0.60153-0.41412 0.90151-1.0246 0.90151-1.8312 0-0.3771-0.048526-0.69929-0.14747-0.96722zm21.023 3.2097v-8.6472l-1.9603 0.34667v8.3005h1.9603zm12.611 0v-12.337l-1.9615 0.34824v11.989h1.9615zm21.961-5.1457c0.24641-0.25945 0.51236-0.53553 0.7928-0.83075 0.27887-0.29584 0.55647-0.59169 0.82589-0.8869 0.27036-0.29616 0.52559-0.58133 0.77043-0.85616 0.24168-0.27325 0.4506-0.51231 0.6217-0.71812h2.3179c-0.53851 0.60298-1.1076 1.227-1.7044 1.872-0.59933 0.64533-1.1999 1.274-1.8037 1.8874 0.32361 0.2698 0.66392 0.59451 1.019 0.97663 0.35575 0.38086 0.69985 0.7862 1.0348 1.2176 0.33275 0.42949 0.64754 0.86024 0.93712 1.2891 0.29242 0.43075 0.5341 0.82949 0.72852 1.195h-2.2672c-0.19568-0.33349-0.41972-0.68329-0.67306-1.0491-0.25271-0.36518-0.52685-0.72063-0.81801-1.0645-0.29242-0.34353-0.58988-0.6698-0.89301-0.97631-0.30092-0.30651-0.59933-0.56722-0.88891-0.7818v3.8717h-1.9631v-11.99l1.9631-0.34729v7.1915zm-13.935 0.9029c0-0.82824-0.16606-1.4842-0.49471-1.9674-0.32991-0.48439-0.84921-0.72659-1.5626-0.72659-0.32613 0-0.62958 0.048-0.91538 0.14494-0.28643 0.097255-0.5174 0.20518-0.69039 0.32345v4.854c0.14211 0.033255 0.32204 0.063373 0.54292 0.090039 0.2212 0.02698 0.49125 0.039529 0.80194 0.039529 0.72348 0 1.2916-0.24408 1.7031-0.73255 0.40838-0.49004 0.61508-1.1649 0.61508-2.0254zm2.0088 0.031059c0 0.67859-0.1002 1.2882-0.30029 1.8325-0.19883 0.54243-0.48558 1.008-0.85992 1.3951-0.36962 0.38745-0.82242 0.68267-1.3515 0.88722-0.52906 0.20361-1.129 0.30557-1.7996 0.30557-0.64691 0-1.2645-0.047373-1.8541-0.14337-0.58924-0.09851-1.0764-0.20549-1.4659-0.32314v-11.753l1.9593-0.34792v4.2121c0.22782-0.11859 0.50732-0.2262 0.83503-0.3222 0.33054-0.097255 0.69386-0.14525 1.095-0.14525 0.59366 0 1.1256 0.10478 1.5941 0.31373 0.47077 0.2102 0.86276 0.50918 1.176 0.89631 0.31227 0.38714 0.55206 0.85271 0.72001 1.3942 0.16795 0.54463 0.25177 1.1426 0.25177 1.798zm-22.42-6.6933c0 0.36675-0.12005 0.65537-0.35827 0.87153-0.23696 0.21584-0.51835 0.32188-0.84164 0.32188-0.33401 0-0.62202-0.10604-0.85992-0.32188-0.23727-0.21616-0.35575-0.50478-0.35575-0.87153 0-0.37584 0.11848-0.67231 0.35575-0.8869 0.2379-0.2149 0.52591-0.32345 0.85992-0.32345 0.3233 0 0.60468 0.10855 0.84164 0.32345 0.23822 0.21459 0.35827 0.51106 0.35827 0.8869zm-13.861 6.6783c0-0.83859-0.18213-1.5021-0.54135-1.9925-0.363-0.48816-0.86906-0.73349-1.5153-0.73349-0.64848 0-1.1527 0.24533-1.515 0.73349-0.363 0.49035-0.54355 1.1539-0.54355 1.9925 0 0.84957 0.18055 1.5231 0.54355 2.0157 0.36237 0.49506 0.86654 0.74322 1.515 0.74322 0.64628 0 1.1523-0.24816 1.5153-0.74322 0.35922-0.49255 0.54135-1.1661 0.54135-2.0157zm2.0094 0c0 0.66792-0.097367 1.2737-0.29116 1.8234-0.19505 0.54808-0.47014 1.0162-0.82557 1.4039-0.35764 0.3862-0.7865 0.68706-1.2894 0.90259-0.50259 0.21522-1.0569 0.32188-1.66 0.32188-0.605 0-1.1564-0.10667-1.6515-0.32188-0.49755-0.21553-0.92546-0.51639-1.2812-0.90259-0.35701-0.38776-0.6343-0.85584-0.83377-1.4039-0.20104-0.54965-0.29998-1.1555-0.29998-1.8234 0-0.66729 0.098943-1.2712 0.29998-1.814 0.19946-0.54337 0.47927-1.0089 0.84133-1.3964 0.36142-0.38651 0.79091-0.68486 1.2881-0.89475 0.49723-0.21051 1.042-0.31529 1.637-0.31529 0.59334 0 1.1419 0.10478 1.6433 0.31529 0.50322 0.20988 0.93334 0.50824 1.2875 0.89475 0.35701 0.38745 0.63557 0.85302 0.83692 1.3964 0.19978 0.54275 0.2984 1.1467 0.2984 1.814z" fill="#2F3744"/>
</g>
</g>
</g>
</svg>
